<?xml version="1.0" encoding="UTF-8" ?>
<!DOCTYPE svg PUBLIC "-//W3C//DTD SVG 1.1//EN" "http://www.w3.org/Graphics/SVG/1.1/DTD/svg11.dtd">
<svg width="50pt" height="50pt" viewBox="0 0 50 50" version="1.1" xmlns="http://www.w3.org/2000/svg">
<g id="#000000ff">
<path fill="#000000" opacity="1.00" d=" M 36.21 13.06 C 38.35 12.71 39.48 14.91 40.84 16.14 C 43.35 19.22 46.45 21.80 48.81 25.00 C 46.44 28.20 43.36 30.79 40.84 33.86 C 39.48 35.08 38.35 37.28 36.23 36.91 C 34.91 36.28 34.70 34.67 35.65 33.62 C 37.41 31.37 39.55 29.43 41.25 27.12 C 28.52 26.77 15.78 27.20 3.05 26.93 C 0.40 27.19 0.38 22.80 3.05 23.08 C 15.78 22.80 28.51 23.21 41.24 22.89 C 39.58 20.54 37.49 18.56 35.65 16.36 C 34.64 15.34 34.92 13.69 36.21 13.06 Z" />
</g>
</svg>
