<?xml version="1.0" encoding="UTF-8" ?>
<!DOCTYPE svg PUBLIC "-//W3C//DTD SVG 1.1//EN" "http://www.w3.org/Graphics/SVG/1.1/DTD/svg11.dtd">
<svg width="512pt" height="512pt" viewBox="0 0 512 512" version="1.1" xmlns="http://www.w3.org/2000/svg">
<g id="#000000ff">
<path fill="#ff7426" opacity="1.00" d=" M 0.00 54.83 C 1.43 39.39 15.35 26.25 31.01 26.54 C 134.35 26.52 237.70 26.55 341.04 26.53 C 344.64 26.61 348.32 26.16 351.86 26.98 C 356.14 28.35 358.15 33.96 355.77 37.76 C 354.28 40.55 351.02 41.67 348.02 41.54 C 245.03 41.53 142.03 41.54 39.04 41.53 C 35.05 41.58 31.00 41.20 27.06 42.05 C 20.06 43.83 14.76 50.73 15.02 57.98 C 14.99 152.88 14.99 247.78 15.01 342.68 C 175.67 342.67 336.32 342.65 496.98 342.68 C 497.04 250.12 496.97 157.57 497.01 65.01 C 496.98 61.36 497.23 57.67 496.56 54.06 C 495.04 46.98 488.24 41.45 480.97 41.55 C 449.28 41.51 417.59 41.53 385.90 41.55 C 383.39 41.57 380.62 41.16 378.88 39.16 C 375.96 36.26 376.21 31.00 379.37 28.38 C 381.12 26.66 383.70 26.53 386.01 26.51 C 416.02 26.55 446.04 26.54 476.05 26.52 C 482.27 26.33 488.73 26.73 494.37 29.64 C 504.12 34.23 510.71 44.14 512.00 54.74 L 512.00 369.21 C 510.85 379.64 504.53 389.44 495.09 394.19 C 489.88 396.99 483.89 397.87 478.04 397.69 C 427.73 397.64 377.43 397.68 327.12 397.67 C 329.58 411.94 332.02 426.22 334.54 440.48 C 339.87 440.54 345.22 440.25 350.54 440.64 C 359.22 441.41 367.01 447.79 369.60 456.09 C 371.84 462.86 370.56 470.67 366.25 476.37 C 362.10 482.09 355.11 485.55 348.04 485.46 C 286.71 485.47 225.38 485.46 164.04 485.47 C 156.95 485.58 149.95 482.13 145.77 476.41 C 141.43 470.70 140.14 462.85 142.41 456.06 C 145.00 447.76 152.81 441.39 161.49 440.64 C 166.81 440.25 172.14 440.54 177.46 440.48 C 179.97 426.21 182.43 411.94 184.88 397.67 C 169.57 397.67 154.27 397.65 138.97 397.69 C 136.64 397.72 134.11 397.30 132.43 395.53 C 129.39 392.69 129.49 387.34 132.67 384.64 C 135.43 382.05 139.54 382.78 143.00 382.64 C 255.34 382.71 367.68 382.63 480.02 382.68 C 485.90 382.93 491.79 379.84 494.73 374.71 C 497.90 369.61 496.85 363.36 496.98 357.67 C 336.33 357.66 175.67 357.67 15.02 357.67 C 15.17 363.13 14.14 369.07 16.91 374.07 C 19.61 379.19 25.16 382.68 30.99 382.65 C 54.65 382.71 78.32 382.63 101.97 382.68 C 105.85 382.33 109.84 384.95 110.39 388.93 C 111.30 393.32 107.48 397.84 102.99 397.63 C 79.34 397.73 55.68 397.63 32.03 397.68 C 26.57 397.74 21.05 396.53 16.27 393.85 C 7.20 389.02 1.19 379.50 0.00 369.37 L 0.00 54.83 M 200.11 397.67 C 197.64 411.93 195.17 426.20 192.72 440.46 C 216.15 440.49 239.58 440.44 263.01 440.48 C 265.78 440.34 268.67 441.50 270.15 443.94 C 273.71 448.92 269.00 456.35 262.99 455.47 C 230.31 455.46 197.62 455.47 164.94 455.47 C 161.96 455.29 158.76 456.52 157.31 459.26 C 155.29 462.56 156.46 467.26 159.74 469.28 C 162.17 470.88 165.21 470.38 167.96 470.49 C 227.95 470.42 287.93 470.51 347.91 470.45 C 352.02 470.73 355.80 467.09 355.68 462.98 C 355.80 458.94 352.14 455.39 348.12 455.51 C 331.76 455.38 315.39 455.54 299.03 455.44 C 294.98 455.67 291.31 452.07 291.39 448.04 C 291.24 443.98 294.91 440.37 298.96 440.51 C 305.73 440.37 312.51 440.52 319.28 440.46 C 316.83 426.20 314.34 411.94 311.90 397.68 C 274.63 397.66 237.37 397.67 200.11 397.67 Z" />
<path fill="#ff7426" opacity="1.00" d=" M 50.38 80.50 C 53.24 80.15 56.13 80.36 59.00 80.33 C 113.01 80.33 167.01 80.34 221.01 80.33 C 223.80 80.14 226.70 81.32 228.19 83.76 C 230.41 87.03 229.39 91.92 226.05 94.02 C 224.31 95.29 222.07 95.31 220.02 95.35 C 164.34 95.31 108.66 95.35 52.98 95.33 C 49.77 95.55 46.41 93.96 45.09 90.92 C 43.01 86.79 45.80 81.23 50.38 80.50 Z" />
<path fill="#ff7426" opacity="1.00" d=" M 419.41 80.52 C 432.61 80.07 445.85 80.47 459.07 80.33 C 462.71 79.97 466.48 82.38 467.23 86.06 C 467.68 89.02 467.43 92.04 467.48 95.03 C 467.48 125.03 467.46 155.04 467.49 185.04 C 467.61 187.82 466.88 190.86 464.47 192.53 C 462.38 194.24 459.54 194.05 457.02 194.09 C 445.00 193.99 432.98 194.17 420.97 194.01 C 416.77 194.12 413.22 190.19 413.56 186.03 C 413.55 153.38 413.52 120.72 413.58 88.07 C 413.40 84.58 415.95 81.19 419.41 80.52 M 428.54 95.36 C 428.56 123.26 428.53 151.16 428.56 179.06 C 436.53 179.07 444.50 179.07 452.47 179.06 C 452.49 151.16 452.45 123.27 452.49 95.37 C 444.51 95.30 436.52 95.32 428.54 95.36 Z" />
<path fill="#ff7426" opacity="1.00" d=" M 277.19 100.25 C 290.49 99.98 303.80 100.18 317.11 100.15 C 321.31 99.89 325.00 103.73 324.76 107.90 C 324.80 133.95 324.79 160.01 324.76 186.07 C 325.10 190.34 321.34 194.26 317.05 194.03 C 304.35 194.11 291.65 194.07 278.95 194.05 C 274.50 194.43 270.45 190.42 270.88 185.95 C 270.86 159.97 270.84 133.98 270.89 108.00 C 270.65 104.31 273.47 100.66 277.19 100.25 M 285.87 115.14 C 285.86 136.44 285.86 157.75 285.87 179.06 C 293.84 179.07 301.81 179.07 309.78 179.06 C 309.78 157.75 309.78 136.44 309.78 115.14 C 301.81 115.13 293.84 115.13 285.87 115.14 Z" />
<path fill="#ff7426" opacity="1.00" d=" M 49.38 120.60 C 50.87 120.11 52.47 120.17 54.02 120.11 C 88.37 120.19 122.71 120.07 157.05 120.17 C 161.30 119.91 165.16 123.82 164.78 128.08 C 164.67 132.04 160.97 135.37 157.01 135.11 C 122.34 135.17 87.67 135.11 53.01 135.14 C 49.86 135.40 46.53 133.90 45.17 130.94 C 43.15 127.12 45.28 121.94 49.38 120.60 Z" />
<path fill="#ff7426" opacity="1.00" d=" M 189.38 120.53 C 197.85 119.61 206.46 120.39 214.99 120.13 C 219.33 120.32 224.88 119.03 227.86 123.13 C 231.64 127.61 227.93 135.33 222.05 135.09 C 212.02 135.19 201.98 135.14 191.94 135.11 C 188.31 135.31 184.86 132.53 184.31 128.94 C 183.60 125.38 185.91 121.57 189.38 120.53 Z" />
<path fill="#ff7426" opacity="1.00" d=" M 346.36 122.49 C 348.38 121.36 350.78 121.58 353.01 121.51 C 365.00 121.61 377.00 121.42 388.98 121.60 C 392.91 121.52 396.43 125.03 396.34 128.96 C 396.45 147.96 396.38 166.97 396.38 185.96 C 396.73 190.12 393.21 194.11 388.99 194.01 C 375.99 194.12 362.98 194.10 349.99 194.02 C 345.74 194.18 342.15 190.22 342.48 186.03 C 342.46 167.33 342.48 148.63 342.47 129.94 C 342.28 126.98 343.67 123.90 346.36 122.49 M 357.42 178.96 C 365.41 179.19 373.40 179.01 381.39 179.06 C 381.40 164.89 381.39 150.71 381.39 136.54 C 373.42 136.52 365.45 136.54 357.49 136.53 C 357.42 150.67 357.55 164.82 357.42 178.96 Z" />
<path fill="#ff7426" opacity="1.00" d=" M 49.38 165.60 C 52.17 164.85 55.11 165.19 57.96 165.12 C 112.33 165.15 166.70 165.11 221.07 165.14 C 225.48 164.69 229.76 168.53 229.37 173.04 C 229.27 177.29 225.14 180.58 220.99 180.14 C 164.67 180.11 108.35 180.18 52.03 180.10 C 48.47 180.26 45.10 177.52 44.53 174.00 C 43.81 170.50 46.01 166.73 49.38 165.60 Z" />
<path fill="#ff7426" opacity="1.00" d=" M 49.36 205.44 C 59.83 204.42 70.47 205.29 81.02 204.99 C 84.90 204.53 88.98 207.06 89.66 211.04 C 90.71 215.57 86.72 220.25 82.08 219.97 C 72.01 220.01 61.92 220.05 51.85 219.95 C 48.41 220.01 45.18 217.37 44.56 213.98 C 43.75 210.45 45.95 206.61 49.36 205.44 Z" />
<path fill="#ff7426" opacity="1.00" d=" M 114.25 205.41 C 115.78 204.96 117.39 205.01 118.97 204.97 C 153.36 205.07 187.76 204.91 222.15 205.06 C 227.00 204.96 230.74 210.42 228.97 214.93 C 227.92 218.22 224.45 220.24 221.08 219.99 C 186.36 219.99 151.64 220.04 116.93 219.97 C 113.03 220.17 109.39 216.93 109.22 213.02 C 108.91 209.72 111.11 206.43 114.25 205.41 Z" />
<path fill="#ff7426" opacity="1.00" d=" M 399.19 220.22 C 401.57 215.18 409.58 215.05 412.13 220.01 C 419.60 234.28 426.76 248.73 434.13 263.06 C 442.77 263.12 451.42 262.98 460.06 263.11 C 464.20 262.98 467.81 266.89 467.44 271.00 C 467.30 274.81 463.85 278.09 460.04 278.01 C 450.00 278.12 439.95 278.09 429.90 278.03 C 426.75 278.19 423.84 276.22 422.56 273.39 C 416.99 262.48 411.42 251.56 405.91 240.63 C 404.07 243.04 402.93 245.88 401.53 248.56 C 391.04 269.06 380.72 289.66 370.14 310.11 C 367.62 315.20 359.45 315.12 357.05 309.96 C 347.07 290.69 337.41 271.25 327.44 251.97 C 326.22 252.15 325.96 253.48 325.41 254.38 C 322.18 260.86 318.92 267.32 315.57 273.74 C 314.22 276.62 311.06 278.26 307.93 278.05 C 297.94 278.03 287.94 278.17 277.95 277.99 C 273.87 277.95 270.45 273.98 270.90 269.95 C 271.11 266.33 274.33 263.15 277.97 263.13 C 286.71 262.97 295.45 263.11 304.18 263.08 C 309.63 252.54 314.89 241.91 320.37 231.39 C 322.03 227.79 326.72 226.09 330.28 227.90 C 332.80 228.97 333.97 231.62 335.16 233.90 C 344.51 252.60 354.27 271.10 363.46 289.87 C 375.72 266.86 387.11 243.35 399.19 220.22 Z" />
<path fill="#ff7426" opacity="1.00" d=" M 50.35 244.55 C 52.22 244.26 54.12 244.32 56.01 244.31 C 111.04 244.37 166.07 244.30 221.10 244.34 C 226.18 243.77 230.76 249.04 229.07 253.98 C 228.11 257.46 224.50 259.66 220.96 259.34 C 164.66 259.31 108.34 259.37 52.04 259.31 C 48.39 259.47 44.96 256.58 44.50 252.97 C 43.83 249.19 46.57 245.21 50.35 244.55 Z" />
<path fill="#ff7426" opacity="1.00" d=" M 49.38 284.42 C 50.87 283.95 52.45 284.02 53.99 283.98 C 80.02 284.07 106.06 283.92 132.10 284.05 C 136.59 283.93 140.26 288.61 139.24 292.95 C 138.58 296.71 134.81 299.28 131.08 298.99 C 105.05 299.02 79.02 299.00 52.99 299.00 C 49.15 299.37 45.16 296.79 44.54 292.86 C 43.80 289.35 45.99 285.56 49.38 284.42 Z" />
</g>
</svg>
